<svg fill="none" height="16" viewBox="0 0 17 16" width="17" xmlns="http://www.w3.org/2000/svg"><path clip-rule="evenodd" d="m0 8.04469c0 3.97761 2.90503 7.28491 6.70391 7.95531l.04484-.0359c-.01494-.0029-.02989-.0058-.04484-.0088v-5.676h-2.01117v-2.23461h2.01117v-1.78771c0-2.01117 1.29609-3.12849 3.12849-3.12849.581 0 1.2067.08939 1.7877.17877v2.05587h-1.0279c-.98326 0-1.20672.49162-1.20672 1.11732v1.56424h2.14522l-.3575 2.23461h-1.78772v5.676c-.01495.003-.0299.0059-.04485.0088l.04485.0359c3.79892-.6704 6.70392-3.9777 6.70392-7.95531 0-4.42458-3.6201-8.04469-8.04471-8.04469-4.42458 0-8.04469 3.62011-8.04469 8.04469z" fill="#91f322" fill-rule="evenodd"/></svg>