<svg fill="none" height="33" viewBox="0 0 32 33" width="32" xmlns="http://www.w3.org/2000/svg" xmlns:xlink="http://www.w3.org/1999/xlink"><linearGradient id="a"><stop offset="0" stop-color="#90ff12"/><stop offset="1" stop-color="#f9fc47"/></linearGradient><linearGradient id="b" gradientUnits="userSpaceOnUse" x1="11.7554" x2="22.2003" xlink:href="#a" y1="7.5" y2="17.0839"/><linearGradient id="c" gradientUnits="userSpaceOnUse" x1="15.9205" x2="25.5333" xlink:href="#a" y1="23.5" y2="29.8003"/><linearGradient id="d" gradientUnits="userSpaceOnUse" x1="4.81347" x2="14.8323" xlink:href="#a" y1="15.5" y2="29.0705"/><g clip-rule="evenodd" fill-rule="evenodd"><path d="m26.3333 8.5c0-.55228-.4477-1-1-1h-12c-.5522 0-1 .44772-1 1s.4478 1 1 1h12c.5523 0 1-.44772 1-1z" fill="url(#b)"/><path d="m26.3333 24.5c0-.5523-.4477-1-1-1h-8c-.5522 0-1 .4477-1 1s.4478 1 1 1h8c.5523 0 1-.4477 1-1z" fill="url(#c)"/><path d="m26.3333 16.5c0-.5523-.4477-1-1-1h-18.66662c-.55229 0-1 .4477-1 1s.44771 1 1 1h18.66662c.5523 0 1-.4477 1-1z" fill="url(#d)"/></g></svg>